<?xml version="1.0" standalone="no"?><svg xmlns:xlink="http://www.w3.org/1999/xlink" xmlns="http://www.w3.org/2000/svg" viewBox="0 0 1000 428.57474924745185" preserveAspectRatio="xMaxYMax slice"><g transform="scale(1.4527957601608537)"><rect x="0" y="0" width="688.3333333333333" height="295" fill="#1c2541"/><rect x="0" y="0" width="98.33333333333333" height="98.33333333333333" fill="#1c2541"/><rect x="0" y="0" width="49.17" height="49.17" fill="#0f1730"/><path d="M 0 0 A 49.17 49.17 0 0 1 49.17 49.17 L 0 49.17" fill="#24304c"/><rect x="49.17" y="0" width="49.17" height="49.17" fill="#17203b"/><path d="M 49.17 49.17 A 49.17 49.17 0 0 1  98.34 0 L 98.34 49.17" fill="#2d3d59"/><rect x="0" y="49.17" width="49.17" height="49.17" fill="#2d3e59"/><path d="M 0 98.34 A 49.17 49.17 0 0 0 49.17 49.17 L 0 49.17" fill="#151d38"/><rect x="49.17" y="49.17" width="49.17" height="49.17" fill="#1b233f"/><path d="M 49.17 49.17 A 49.17 49.17 0 0 0 98.34 98.34 L 98.34 49.17" fill="#101831"/><rect x="98.33" y="0" width="98.33" height="98.33" fill="#0f1730"/><polygon points="196.66,0 196.66,98.33 98.33,98.33" fill="#2c3c57"/><rect x="196.67" y="0" width="98.33" height="98.33" fill="#202b47"/><polygon points="196.67,0 295,0 295,98.33" fill="#111a33"/><rect x="295" y="0" width="98.33" height="98.33" fill="#141c36"/><polygon points="393.33,0 393.33,98.33 295,98.33" fill="#111933"/><rect x="393.33" y="0" width="98.33" height="98.33" fill="#344863"/><path d="M 393.33 98.33 A 98.33 98.33 0 0 1  491.65999999999997 0 L 393.33 98.33 A 98.33 98.33 0 0 0 491.65999999999997 0" fill="#0d152e"/><rect x="491.67" y="0" width="98.33" height="98.33" fill="#3a4f6a"/><polygon points="491.67,0 590,0 491.67,98.33" fill="#394f6a"/><rect x="590" y="0" width="98.33" height="98.33" fill="#2c3d58"/><rect x="590" y="0" width="98.33" height="98.33" fill="#25324d"/><rect x="0" y="98.33333333333333" width="98.33333333333333" height="98.33333333333333" fill="#1c2541"/><rect x="0" y="98.33" width="49.17" height="49.17" fill="#293753"/><polygon points="49.17,98.33 49.17,147.5 0,147.5" fill="#101932"/><rect x="49.17" y="98.33" width="49.17" height="49.17" fill="#283652"/><polygon points="49.17,98.33 98.34,98.33 49.17,147.5" fill="#344863"/><rect x="0" y="147.5" width="49.17" height="49.17" fill="#141d37"/><polygon points="0,147.5 49.17,147.5 49.17,196.67000000000002" fill="#354964"/><rect x="49.17" y="147.5" width="49.17" height="49.17" fill="#222d49"/><polygon points="49.17,147.5 98.34,196.67000000000002 49.17,196.67000000000002" fill="#2a3a55"/><rect x="98.33333333333333" y="98.33333333333333" width="98.33333333333333" height="98.33333333333333" fill="#1c2541"/><rect x="98.33" y="98.33" width="49.17" height="49.17" fill="#0b132b"/><path d="M 98.33 147.5 A 49.17 49.17 0 0 1  147.5 98.33 L 147.5 147.5" fill="#222e4a"/><rect x="147.5" y="98.33" width="49.17" height="49.17" fill="#1d2743"/><path d="M 147.5 98.33 A 49.17 49.17 0 0 1 196.67000000000002 147.5 L 147.5 147.5" fill="#141c36"/><rect x="98.33" y="147.5" width="49.17" height="49.17" fill="#0e172f"/><path d="M 98.33 147.5 A 49.17 49.17 0 0 0 147.5 196.67000000000002 L 147.5 147.5" fill="#17203b"/><rect x="147.5" y="147.5" width="49.17" height="49.17" fill="#141c36"/><path d="M 147.5 196.67000000000002 A 49.17 49.17 0 0 0 196.67000000000002 147.5 L 147.5 147.5" fill="#151e38"/><rect x="196.66666666666666" y="98.33333333333333" width="98.33333333333333" height="98.33333333333333" fill="#1c2541"/><rect x="196.67" y="98.33" width="49.17" height="49.17" fill="#1a233e"/><polygon points="245.83999999999997,98.33 245.83999999999997,147.5 196.67,147.5" fill="#1e2844"/><rect x="245.83" y="98.33" width="49.17" height="49.17" fill="#344763"/><polygon points="245.83,98.33 295,147.5 245.83,147.5" fill="#202b47"/><rect x="196.67" y="147.5" width="49.17" height="49.17" fill="#374c67"/><polygon points="196.67,147.5 245.83999999999997,147.5 245.83999999999997,196.67000000000002" fill="#24304c"/><rect x="245.83" y="147.5" width="49.17" height="49.17" fill="#334661"/><polygon points="245.83,147.5 295,147.5 245.83,196.67000000000002" fill="#2c3c58"/><rect x="295" y="98.33333333333333" width="98.33333333333333" height="98.33333333333333" fill="#1c2541"/><rect x="295" y="98.33" width="49.17" height="49.17" fill="#1d2743"/><path d="M 295 98.33 A 49.17 49.17 0 0 0 344.17 147.5 L 344.17 98.33" fill="#1f2945"/><rect x="344.17" y="98.33" width="49.17" height="49.17" fill="#151e38"/><path d="M 344.17 147.5 A 49.17 49.17 0 0 0 393.34000000000003 98.33 L 344.17 98.33" fill="#141d37"/><rect x="295" y="147.5" width="49.17" height="49.17" fill="#202b47"/><path d="M 295 196.67000000000002 A 49.17 49.17 0 0 1  344.17 147.5 L 344.17 196.67000000000002" fill="#1e2944"/><rect x="344.17" y="147.5" width="49.17" height="49.17" fill="#121a34"/><path d="M 344.17 147.5 A 49.17 49.17 0 0 1 393.34000000000003 196.67000000000002 L 344.17 196.67000000000002" fill="#19223e"/><rect x="393.3333333333333" y="98.33333333333333" width="98.33333333333333" height="98.33333333333333" fill="#1c2541"/><rect x="393.33" y="98.33" width="49.17" height="49.17" fill="#18213c"/><path d="M 393.33 147.5 A 49.17 49.17 0 0 0 442.5 98.33 L 393.33 98.33" fill="#2c3c57"/><rect x="442.5" y="98.33" width="49.17" height="49.17" fill="#354864"/><path d="M 442.5 98.33 A 49.17 49.17 0 0 0 491.67 147.5 L 491.67 98.33" fill="#131b35"/><rect x="393.33" y="147.5" width="49.17" height="49.17" fill="#0c142c"/><path d="M 393.33 147.5 A 49.17 49.17 0 0 1 442.5 196.67000000000002 L 393.33 196.67000000000002" fill="#364a65"/><rect x="442.5" y="147.5" width="49.17" height="49.17" fill="#19223e"/><path d="M 442.5 196.67000000000002 A 49.17 49.17 0 0 1  491.67 147.5 L 491.67 196.67000000000002" fill="#18213c"/><rect x="491.67" y="98.33" width="98.33" height="98.33" fill="#25324e"/><rect x="491.67" y="98.33" width="98.33" height="98.33" fill="#374c67"/><rect x="590" y="98.33333333333333" width="98.33333333333333" height="98.33333333333333" fill="#1c2541"/><rect x="590" y="98.33" width="49.17" height="49.17" fill="#0f1831"/><polygon points="639.17,98.33 639.17,147.5 590,147.5" fill="#2a3a55"/><rect x="639.17" y="98.33" width="49.17" height="49.17" fill="#324560"/><polygon points="639.17,98.33 688.3399999999999,98.33 639.17,147.5" fill="#2a3955"/><rect x="590" y="147.5" width="49.17" height="49.17" fill="#151e38"/><polygon points="590,147.5 639.17,147.5 639.17,196.67000000000002" fill="#232e4a"/><rect x="639.17" y="147.5" width="49.17" height="49.17" fill="#0c142d"/><polygon points="639.17,147.5 688.3399999999999,196.67000000000002 639.17,196.67000000000002" fill="#161f3a"/><rect x="0" y="196.67" width="98.33" height="98.33" fill="#202a46"/><polygon points="0,196.67 98.33,196.67 98.33,295" fill="#2a3955"/><rect x="98.33" y="196.67" width="98.33" height="98.33" fill="#1c2642"/><path d="M 98.33 196.67 A 98.33 98.33 0 0 1  196.66 295 L 98.33 196.67 A 98.33 98.33 0 0 0 196.66 295" fill="#24304c"/><rect x="196.67" y="196.67" width="98.33" height="98.33" fill="#0e172f"/><rect x="196.67" y="196.67" width="98.33" height="98.33" fill="#2e3f5a"/><rect x="295" y="196.67" width="98.33" height="98.33" fill="#202b47"/><path d="M 295 196.67 A 98.33 98.33 0 0 1 393.33 295 L 295 295" fill="#0e162e"/><rect x="393.33" y="196.67" width="98.33" height="98.33" fill="#2d3d58"/><rect x="393.33" y="196.67" width="98.33" height="98.33" fill="#121a34"/><rect x="491.66666666666663" y="196.66666666666666" width="98.33333333333333" height="98.33333333333333" fill="#1c2541"/><rect x="491.67" y="196.67" width="49.17" height="49.17" fill="#111a33"/><circle cx="516.255" cy="221.255" r="24.585" fill="#31435e"/><rect x="540.83" y="196.67" width="49.17" height="49.17" fill="#222e4a"/><rect x="540.83" y="196.67" width="49.17" height="49.17" fill="#111933"/><rect x="491.67" y="245.83" width="49.17" height="49.17" fill="#344762"/><circle cx="516.255" cy="270.415" r="24.585" fill="#101831"/><rect x="540.83" y="245.83" width="49.17" height="49.17" fill="#0c142c"/><rect x="540.83" y="245.83" width="49.17" height="49.17" fill="#212c48"/><rect x="590" y="196.67" width="98.33" height="98.33" fill="#17203b"/><path d="M 590 295 A 98.33 98.33 0 0 1  688.33 196.67 L 688.33 295" fill="#25334e"/></g></svg>